<?xml version="1.0" standalone="no"?>
<!DOCTYPE svg PUBLIC "-//W3C//DTD SVG 20010904//EN"
 "http://www.w3.org/TR/2001/REC-SVG-20010904/DTD/svg10.dtd">
<svg version="1.0" xmlns="http://www.w3.org/2000/svg"
 width="70.000000pt" height="70.000000pt" viewBox="0 0 70.000000 70.000000"
 preserveAspectRatio="xMidYMid meet">
<metadata>
Created by potrace 1.14, written by Peter Selinger 2001-2017
</metadata>
<g transform="translate(0.000000,70.000000) scale(0.100000,-0.100000)"
fill="#000000" stroke="none">
<path d="M131 671 c-18 -11 -7 -59 16 -68 9 -4 30 1 46 10 27 16 30 16 59 -4
16 -12 53 -24 81 -28 38 -5 51 -11 49 -21 -2 -8 -6 -48 -9 -87 l-6 -73 106 0
106 0 6 53 c13 100 12 101 -82 107 -45 3 -85 8 -88 12 -3 3 20 15 51 25 61 20
81 40 71 67 -6 14 -30 16 -199 16 -106 0 -199 -4 -207 -9z m434 -141 c4 -6 4
-33 0 -60 l-7 -50 -84 0 c-68 0 -84 3 -84 15 0 8 9 15 19 15 29 0 35 17 11 30
-12 6 -20 21 -20 35 0 24 2 25 79 25 45 0 83 -5 86 -10z"/>
<path d="M143 563 c-36 -2 -63 -9 -65 -16 -2 -7 -2 -41 1 -77 l6 -65 105 0
105 0 -2 68 c-1 78 -13 98 -57 95 -17 -1 -59 -3 -93 -5z m125 -51 c3 -17 -2
-25 -18 -29 -26 -7 -21 -27 9 -31 12 -2 20 -9 18 -15 -3 -11 -144 -27 -167
-19 -6 2 -10 30 -10 63 l0 60 83 -3 c77 -3 82 -4 85 -26z"/>
<path d="M195 209 c-22 -10 -34 -19 -26 -19 11 0 11 -4 -2 -18 -27 -30 -20
-42 22 -42 25 0 41 -5 45 -15 3 -8 1 -15 -4 -15 -6 0 -10 -3 -10 -7 0 -5 14
-8 31 -8 32 0 32 2 14 60 -6 19 -2 21 70 21 l76 0 -6 -26 c-3 -14 -8 -33 -11
-43 -5 -15 -1 -18 18 -15 12 2 23 8 23 13 1 23 18 35 51 35 35 0 44 16 22 38
-17 17 -4 25 21 13 12 -6 30 -16 42 -22 17 -8 20 -8 17 3 -3 7 -36 23 -74 36
-65 22 -71 22 -114 7 -59 -20 -88 -19 -130 3 -34 18 -36 18 -75 1z"/>
<path d="M70 148 c-41 -43 -51 -68 -25 -68 8 0 12 6 10 13 -8 19 47 77 73 77
12 0 22 5 22 10 0 24 -44 7 -80 -32z"/>
<path d="M607 122 c6 -25 30 -48 40 -38 4 4 -5 19 -20 33 -24 25 -26 25 -20 5z"/>
<path d="M70 96 c0 -2 7 -6 15 -10 8 -3 15 -1 15 4 0 6 -7 10 -15 10 -8 0 -15
-2 -15 -4z"/>
<path d="M463 93 c9 -2 25 -2 35 0 9 3 1 5 -18 5 -19 0 -27 -2 -17 -5z"/>
</g>
</svg>
